# AST/ASF file generated using VICON BodyLanguage
# -----------------------------------------------
:version 1.10
:name VICON
:units
  mass 1.0
  length 0.45
  angle deg
:documentation
   .ast/.asf automatically generated from VICON data using
   VICON BodyBuilder and BodyLanguage model FoxedUp or BRILLIANT.MOD
:root
   order TX TY TZ RX RY RZ
   axis XYZ
   position 0 0 0  
   orientation 0 0 0 
:bonedata
  begin
     id 1 
     name lhipjoint
     direction 0.584852 -0.759097 0.285867 
     length 2.43633 
     axis 0 0 0  XYZ
  end
  begin
     id 2 
     name lfemur
     direction 0.34202 -0.939693 0  
     length 7.14704  
     axis 0 0 20  XYZ
    dof rx ry rz
    limits (-160.0 20.0)
           (-70.0 70.0)
           (-60.0 70.0)
  end
  begin
     id 3 
     name ltibia
     direction 0.342022 -0.939692 0   
     length 7.68483   
     axis 0 0 20   XYZ
    dof rx
    limits (-10.0 170.0)
  end
  begin
     id 4 
     name lfoot
     direction 0.0999605 -0.274639 0.956337   
     length 2.40452   
     axis -90 7.62852e-016 20   XYZ
    dof rx rz
    limits (-45.0 90.0)
           (-70.0 20.0)
  end
  begin
     id 5 
     name ltoes
     direction 1.53468e-011 -4.21881e-011 1   
     length 1.19837   
     axis -90 7.62852e-016 20   XYZ
    dof rx
    limits (-90.0 20.0)
  end
  begin
     id 6 
     name rhipjoint
     direction -0.569886 -0.769002 0.289597   
     length 2.40495  
     axis 0 0 0  XYZ 
  end
  begin
     id 7 
     name rfemur
     direction -0.34202 -0.939693 0   
     length 7.45086   
     axis 0 0 -20   XYZ
    dof rx ry rz
    limits (-160.0 20.0)
           (-70.0 70.0)
           (-70.0 60.0)
  end
  begin
     id 8 
     name rtibia
     direction -0.34202 -0.939693 0   
     length 7.76831   
     axis 0 0 -20   XYZ
    dof rx
    limits (-10.0 170.0)
 end
 begin
     id 9 
     name rfoot
     direction -0.0798572 -0.219406 0.97236   
     length 2.35911  
     axis -90 -7.62852e-016 -20   XYZ
    dof rx rz
    limits (-45.0 90.0)
           (-20.0 70.0)
  end
  begin
     id 10 
     name rtoes
     direction -1.53469e-011 -4.21728e-011 1   
     length 1.18261   
     axis -90 -7.62852e-016 -20   XYZ
    dof rx
    limits (-90.0 20.0)
  end
  begin
     id 11 
     name lowerback
     direction 0.0242088 0.999437 0.0232389   
     length 2.1561   
     axis 0 0 0   XYZ
    dof rx ry rz
    limits (-20.0 45.0)
           (-30.0 30.0)
           (-30.0 30.0)
  end
  begin
     id 12 
     name upperback
     direction -0.0356893 0.999013 -0.0264323   
     length 2.14431   
     axis 0 0 0   XYZ
    dof rx ry rz
    limits (-20.0 45.0)
           (-30.0 30.0)
           (-30.0 30.0)
  end
  begin
     id 13 
     name thorax
     direction -0.0472163 0.998194 -0.0371284   
     length 2.16169   
     axis 0 0 0   XYZ
    dof rx ry rz
    limits (-20.0 45.0)
           (-30.0 30.0)
           (-30.0 30.0)
  end
  begin
     id 14 
     name lowerneck
     direction 0.00863244 0.999921 0.00911972   
     length 1.58651   
     axis 0 0 0   XYZ
    dof rx ry rz
    limits (-20.0 45.0)
           (-30.0 30.0)
           (-30.0 30.0)
  end
  begin
     id 15 
     name upperneck
     direction 0.149523 0.979068 -0.138086   
     length 1.57486   
     axis 0 0 0   XYZ
    dof rx ry rz
    limits (-20.0 45.0)
           (-30.0 30.0)
           (-30.0 30.0)
  end
  begin
     id 16
     name head
     direction 0.0445219 0.997708 -0.0509576  
     length 1.6019  
     axis 0 0 0   XYZ
    dof rx ry rz
    limits (-20.0 45.0)
           (-30.0 30.0)
           (-30.0 30.0)
  end
  begin
     id 17 
     name lclavicle
     direction 0.911271 0.381667 -0.154644  
     length 3.80848  
     axis 0 0 0   XYZ
    dof ry rz
    limits (-20.0 10.0)
           (0.0 20.0)
  end
  begin
     id 18 
     name lhumerus
     direction 1 -4.49003e-011 2.1308e-027   
     length 5.19069   
     axis 180 -30 -90   XYZ
    dof rx ry rz
    limits (-60.0 90.0)
           (-90.0 90.0)
           (-90.0 90.0)
  end
  begin
     id 19
     name lradius
     direction 1 -4.48914e-011 4.01554e-027   
     length 3.30016   
     axis 180 -30 -90   XYZ
    dof rx
    limits (-10.0 170.0)
  end
  begin
     id 20
     name lwrist
     direction 1 -4.49003e-011 1.1934e-026   
     length 1.65008   
     axis -8.46377e-015 90 90   XYZ
    dof ry
    limits (-180.0 0.0)
 end
  begin
     id 21 
     name lhand
     direction 1 -4.49034e-011 2.38659e-026   
     length 0.707698   
     axis -1.52313e-014 90 90   XYZ
    dof rx rz
    limits (-90.0 90.0)
           (-45.0 45.0)
  end
  begin
     id 22 
     name lfingers
     direction 1 -4.48691e-011 4.77775e-026   
     length 0.570564   
     axis -3.04623e-014 90 90   XYZ
    dof rx
    limits (0.0 90.0)
  end
  begin
     id 23
     name lthumb
     direction 0.707107 -6.34832e-011 0.707107   
     length 0.819219   
     axis -90 45 -1.62303e-014   XYZ
    dof rx rz
    limits (-45.0 45.0)
           (-45.0 45.0)
  end
  begin
     id 24 
     name rclavicle
     direction -0.815579 0.573708 -0.0754329   
     length 3.54371  
     axis 0 0 0   XYZ 
    dof ry rz
    limits (-10.0 20.0)
           (-20.0 0.0)
  end
  begin
     id 25 
     name rhumerus
     direction -1 -4.48956e-011 3.05351e-028  
     length 5.23924   
     axis 180 30 90   XYZ
    dof rx ry rz
    limits (-90.0 60.0)
           (-90.0 90.0)
           (-90.0 90.0)
  end
  begin
     id 26 
     name rradius
     direction -1 -4.49013e-011 3.53849e-027   
     length 3.32953   
     axis 180 30 90   XYZ
    dof rx
    limits (-10.0 170.0)
  end
  begin
     id 27 
     name rwrist
     direction -1 -4.48901e-011 1.19374e-026   
     length 1.66477   
     axis -8.46377e-015 -90 -90   XYZ
    dof ry
    limits (-180.0 0.0)
  end
  begin
     id 28
     name rhand
     direction -1 -4.48877e-011 2.38764e-026   
     length 0.607414   
     axis -1.52313e-014 -90 -90   XYZ
    dof rx rz
    limits (-90.0 90.0)
           (-45.0 45.0)
  end
  begin
     id 29
     name rfingers
     direction -1 -4.48882e-011 4.77521e-026   
     length 0.489712   
     axis -3.04623e-014 -90 -90   XYZ
    dof rx
    limits (0.0 90.0)
  end
  begin
     id 30
     name rthumb
     direction -0.707107 -6.34974e-011 0.707107   
     length 0.703132   
     axis -90 -45 1.62303e-014   XYZ
    dof rx rz
    limits (-45.0 45.0)
           (-45.0 45.0)
  end
:hierarchy
  begin
    root lhipjoint rhipjoint lowerback
    lhipjoint lfemur
    lfemur ltibia
    ltibia lfoot
    lfoot ltoes
    rhipjoint rfemur
    rfemur rtibia
    rtibia rfoot
    rfoot rtoes
    lowerback upperback
    upperback thorax
    thorax lowerneck lclavicle rclavicle
    lowerneck upperneck
    upperneck head
    lclavicle lhumerus
    lhumerus lradius
    lradius lwrist
    lwrist lhand lthumb
    lhand lfingers
    rclavicle rhumerus
    rhumerus rradius
    rradius rwrist
    rwrist rhand rthumb
    rhand rfingers
  end

#!OML:ASF E:\VariousWalksJay\Project 1\Capture day 1\Session 1\Actor2.ASF
:FULLY-SPECIFIED
:DEGREES
269
root 10.6803 15.1016 4.34274 70.795 -82.5779 -77.8723
lowerback 12.8443 1.98668 -1.37211
upperback 10.6206 1.79438 -6.96252
thorax 4.26267 0.742493 -6.81174
lowerneck 2.67964 -4.25366 -12.4988
upperneck 4.08969 -7.81042 28.4044
head 2.34341 -4.16219 11.1159
rclavicle 1.27222e-014 8.90555e-014
rhumerus -69.9306 22.7611 -132.898
rradius 65.7292
rwrist 19.8013
rhand -11.0445 11.843
rfingers 7.12502
rthumb 14.9776 -17.5954
lclavicle 1.27222e-014 8.90555e-014
lhumerus -85.4853 -35.6654 137.668
lradius 72.3186
lwrist 3.74938
lhand 5.04121 -14.7763
lfingers 7.12502
lthumb 30.4093 12.7361
rfemur -32.0848 6.58831 2.57345
rtibia 10.3214
rfoot -43.5941 -38.6969
rtoes -3.17111
lfemur -19.338 18.3549 -8.91194
ltibia 71.6464
lfoot -39.274 3.51322
ltoes -22.4206
270
root 10.6343 15.0565 4.301 76.5345 -83.107 -84.0246
lowerback 12.8389 2.26379 -2.13299
upperback 10.6378 2.06111 -7.26277
thorax 4.30072 0.826868 -6.7305
lowerneck 2.80412 -4.16806 -12.3294
upperneck 3.94106 -7.69348 28.5951
head 2.2537 -4.12851 11.1646
rclavicle -1.11319e-014 4.77083e-014
rhumerus -69.7627 22.8658 -132.71
rradius 65.6579
rwrist 20.6055
rhand -10.9175 11.7959
rfingers 7.12502
rthumb 15.1 -17.6333
lclavicle -1.11319e-014 4.77083e-014
lhumerus -85.2651 -35.4961 137.566
lradius 72.1355
lwrist 3.898
lhand 4.99384 -15.3586
lfingers 7.12502
lthumb 30.3641 12.1621
rfemur -31.7652 6.31681 1.50367
rtibia 9.57326
rfoot -43.947 -38.4011
rtoes -2.28065
lfemur -18.6306 17.9922 -9.10317
ltibia 71.9777
lfoot -39.5158 4.63826
ltoes -23.1772
271
root 10.5896 15.0179 4.25682 84.3541 -83.4753 -92.3371
lowerback 12.9 2.56418 -2.79846
upperback 10.6585 2.35697 -7.55716
thorax 4.31177 0.92927 -6.70435
lowerneck 2.93098 -4.07321 -12.0777
upperneck 3.84859 -7.57493 28.7647
head 2.17434 -4.09201 11.1897
rclavicle -3.81667e-014 7.63333e-014
rhumerus -69.5112 22.9329 -132.529
rradius 65.5164
rwrist 21.3991
rhand -10.8426 11.6631
rfingers 7.12502
rthumb 15.1721 -17.7607
lclavicle -3.81667e-014 7.63333e-014
lhumerus -85.0921 -35.3982 137.497
lradius 71.9065
lwrist 4.08829
lhand 5.10823 -15.9152
lfingers 7.12502
lthumb 30.4732 11.5854
rfemur -31.5481 6.27182 0.62362
rtibia 8.90284
rfoot -43.798 -39.0018
rtoes -2.52824
lfemur -17.7716 17.7132 -9.18693
ltibia 72.2324
lfoot -39.719 5.82181
ltoes -23.8544
272
root 10.5464 14.9849 4.20958 93.6192 -83.6128 -102.143
lowerback 13.0103 2.85338 -3.40178
upperback 10.6718 2.63518 -7.82495
thorax 4.28562 1.02445 -6.68668
lowerneck 3.03847 -3.95186 -11.8062
upperneck 3.84433 -7.43452 28.8992
head 2.11567 -4.039 11.1984
rclavicle 1.59028e-014 -9.54166e-014
rhumerus -69.2518 23.0049 -132.364
rradius 65.3214
rwrist 22.1494
rhand -10.8514 11.4632
rfingers 7.12502
rthumb 15.1636 -17.9612
lclavicle 1.59028e-014 -9.54166e-014
lhumerus -84.9015 -35.317 137.43
lradius 71.6402
lwrist 4.25517
lhand 5.37418 -16.4565
lfingers 7.12502
lthumb 30.7268 10.9967
rfemur -31.3291 6.38331 -0.0766851
rtibia 8.1899
rfoot -43.6812 -39.702
rtoes -2.49203
lfemur -16.8184 17.4719 -9.19064
ltibia 72.4195
lfoot -39.8884 7.0709
ltoes -24.4264
273
root 10.5043 14.9571 4.15884 103.146 -83.4788 -112.225
lowerback 13.1391 3.09077 -3.97261
upperback 10.6753 2.84427 -8.04079
thorax 4.22805 1.08514 -6.62637
lowerneck 3.07931 -3.78046 -11.6172
upperneck 3.96046 -7.24525 29.012
head 2.09379 -3.95089 11.2161
rclavicle 2.54444e-014 -4.13472e-014
rhumerus -69.0608 23.1384 -132.219
rradius 65.1064
rwrist 22.8133
rhand -10.9104 11.2383
rfingers 7.12502
rthumb 15.1068 -18.1904
lclavicle 2.54444e-014 -4.13472e-014
lhumerus -84.5928 -35.1911 137.313
lradius 71.3477
lwrist 4.38061
lhand 5.82691 -16.9967
lfingers 7.12502
lthumb 31.1584 10.3745
rfemur -31.089 6.59143 -0.608744
rtibia 7.33996
rfoot -43.4775 -40.4426
rtoes -2.39632
lfemur -15.8299 17.2245 -9.13379
ltibia 72.5461
lfoot -40.0308 8.39718
ltoes -24.8618
274
root 10.463 14.9339 4.10493 111.737 -83.0869 -121.347
lowerback 13.26 3.28463 -4.4644
upperback 10.6643 3.00385 -8.21776
thorax 4.15388 1.12574 -6.5645
lowerneck 3.07712 -3.57965 -11.4708
upperneck 4.15581 -7.02997 29.1139
head 2.09701 -3.84262 11.2382
rclavicle -3.02153e-014 1.01778e-013
rhumerus -68.8872 23.2262 -132.062
rradius 64.8997
rwrist 23.3737
rhand -11.0053 11.03
rfingers 7.12502
rthumb 15.0154 -18.4055
lclavicle -3.02153e-014 1.01778e-013
lhumerus -84.2774 -35.0893 137.2
lradius 71.0609
lwrist 4.44489
lhand 6.4511 -17.5532
lfingers 7.12502
lthumb 31.7531 9.70199
rfemur -30.8022 6.84137 -0.983714
rtibia 6.25922
rfoot -43.1126 -41.1061
rtoes -2.34122
lfemur -14.863 16.9456 -9.0355
ltibia 72.6233
lfoot -40.1615 9.81293
ltoes -25.1356
275
root 10.4218 14.9149 4.04821 118.751 -82.4905 -128.834
lowerback 13.3389 3.42307 -4.87436
upperback 10.6373 3.10513 -8.35242
thorax 4.07949 1.14292 -6.49551
lowerneck 3.02029 -3.34935 -11.3715
upperneck 4.41614 -6.78336 29.1956
head 2.12216 -3.71092 11.2622
rclavicle 6.36111e-015 6.04305e-014
rhumerus -68.7499 23.2651 -131.889
rradius 64.7329
rwrist 23.8226
rhand -11.1082 10.8766
rfingers 7.12502
rthumb 14.9162 -18.5663
lclavicle 6.36111e-015 6.04305e-014
lhumerus -83.9592 -35.0034 137.085
lradius 70.7988
lwrist 4.42748
lhand 7.21353 -18.1304
lfingers 7.12502
lthumb 32.4789 8.97827
rfemur -30.4226 7.09957 -1.20906
rtibia 4.82654
rfoot -42.3958 -41.6852
rtoes -2.5973
lfemur -13.9608 16.6298 -8.91347
ltibia 72.6532
lfoot -40.2969 11.3218
ltoes -25.2138
276
root 10.3804 14.8997 3.98899 124.064 -81.7478 -134.532
lowerback 13.3503 3.49577 -5.19173
upperback 10.5928 3.14174 -8.44182
thorax 4.01724 1.13493 -6.41941
lowerneck 2.90948 -3.08949 -11.3251
upperneck 4.71669 -6.49874 29.2568
head 2.16094 -3.55374 11.2892
rclavicle 1.59028e-014 3.81667e-014
rhumerus -68.6683 23.2586 -131.703
rradius 64.6323
rwrist 24.1646
rhand -11.2214 10.7202
rfingers 7.12502
rthumb 14.8072 -18.7308
lclavicle 1.59028e-014 3.81667e-014
lhumerus -83.6426 -34.9239 136.968
lradius 70.583
lwrist 4.34706
lhand 8.13761 -18.7539
lfingers 7.12502
lthumb 33.3579 8.17015
rfemur -29.8259 7.34858 -1.28328
rtibia 2.78485
rfoot -41.0673 -42.2165
rtoes -3.36126
lfemur -13.1614 16.2882 -8.77049
ltibia 72.6336
lfoot -40.443 12.9293
ltoes -25.0684
277
root 10.3374 14.8883 3.92813 128.006 -80.9393 -138.79
lowerback 13.2936 3.50975 -5.44292
upperback 10.5466 3.12132 -8.49413
thorax 3.98553 1.10351 -6.33077
lowerneck 2.75577 -2.80646 -11.3017
upperneck 5.02375 -6.17523 29.2823
head 2.20035 -3.37276 11.3074
rclavicle -3.18055e-015 1.7175e-013
rhumerus -68.6372 23.2071 -131.506
rradius 64.6042
rwrist 24.4096
rhand -11.3401 10.6213
rfingers 7.12502
rthumb 14.6928 -18.8381
lclavicle -3.18055e-015 1.7175e-013
lhumerus -83.3455 -34.849 136.856
lradius 70.4226
lwrist 4.20726
lhand 9.1322 -19.3883
lfingers 7.12502
lthumb 34.3028 7.32768
rfemur -28.8937 7.59641 -1.24293
rtibia -6.67916e-014
rfoot -38.9803 -42.7246
rtoes -4.721
lfemur -12.4265 15.9232 -8.64284
ltibia 72.5568
lfoot -40.6315 14.613
ltoes -24.6635
278
root 10.2916 14.881 3.86527 130.985 -80.1883 -142.085
lowerback 13.2176 3.48377 -5.70168
upperback 10.5289 3.05291 -8.53536
thorax 3.991 1.04708 -6.22043
lowerneck 2.5827 -2.51559 -11.2458
upperneck 5.30411 -5.8276 29.2655
head 2.2286 -3.17845 11.3027
rclavicle 1.59028e-014 1.33583e-013
rhumerus -68.6326 23.0911 -131.309
rradius 64.6482
rwrist 24.5239
rhand -11.4463 10.4659
rfingers 7.12502
rthumb 14.5906 -19.0009
lclavicle 1.59028e-014 1.33583e-013
lhumerus -83.1424 -34.8028 136.794
lradius 70.3228
lwrist 3.9998
lhand 10.0723 -19.9779
lfingers 7.12502
lthumb 35.1949 6.53243
rfemur -29.3163 7.67389 -1.19687
rtibia -4.45278e-014
rfoot -38.2306 -42.3219
rtoes -6.54124
lfemur -11.6662 15.4946 -8.61327
ltibia 72.4025
lfoot -40.8711 16.3742
ltoes -24.0433
279
root 10.2454 14.8778 3.8007 133.222 -79.3534 -144.535
lowerback 13.0587 3.43895 -5.83786
upperback 10.4943 2.98776 -8.55333
thorax 4.02741 1.00183 -6.15003
lowerneck 2.41987 -2.23073 -11.1116
upperneck 5.53152 -5.47307 29.2134
head 2.23637 -2.98291 11.2677
rclavicle 1.74931e-014 -6.04305e-014
rhumerus -68.6332 22.8972 -131.143
rradius 64.7532
rwrist 24.4818
rhand -11.5689 10.2525
rfingers 7.12502
rthumb 14.4724 -19.2228
lclavicle 1.74931e-014 -6.04305e-014
lhumerus -83.0828 -34.8087 136.792
lradius 70.2999
lwrist 3.83337
lhand 11.0332 -20.4789
lfingers 7.12502
lthumb 36.1056 5.81163
rfemur -29.8079 7.74223 -1.00167
rtibia 6.36111e-015
rfoot -37.2744 -41.8114
rtoes -8.67606
lfemur -10.9934 15.1162 -8.51814
ltibia 72.1984
lfoot -41.1357 18.1151
ltoes -23.2286
280
root 10.1984 14.8786 3.73389 134.98 -78.4999 -146.454
lowerback 12.8565 3.38562 -5.9233
upperback 10.4592 2.92505 -8.5596
thorax 4.08883 0.961663 -6.09397
lowerneck 2.27776 -1.95536 -10.8832
upperneck 5.70282 -5.11695 29.1205
head 2.22233 -2.78953 11.197
rclavicle 1.59028e-014 1.27222e-014
rhumerus -68.6358 22.6473 -131.014
rradius 64.8932
rwrist 24.2947
rhand -11.6835 10.0137
rfingers 7.12502
rthumb 14.362 -19.4695
lclavicle 1.59028e-014 1.27222e-014
lhumerus -83.1625 -34.8509 136.849
lradius 70.344
lwrist 3.74511
lhand 12.0048 -20.8687
lfingers 7.12502
lthumb 37.0252 5.18925
rfemur -30.3001 7.80383 -0.724432
rtibia 7.31528e-014
rfoot -36.1762 -41.2598
rtoes -10.987
lfemur -10.3453 14.756 -8.40042
ltibia 71.9359
lfoot -41.4109 19.7874
ltoes -22.2871
281
root 10.151 14.8833 3.6644 136.43 -77.6411 -148.027
lowerback 12.626 3.32816 -5.98712
upperback 10.4244 2.86483 -8.55539
thorax 4.16668 0.924466 -6.03802
lowerneck 2.15727 -1.68795 -10.583
upperneck 5.82812 -4.76146 29.0001
head 2.19123 -2.59944 11.1002
rclavicle 1.19271e-014 -8.90555e-014
rhumerus -68.6535 22.3761 -130.948
rradius 65.047
rwrist 23.9448
rhand -11.8328 9.69082
rfingers 7.12502
rthumb 14.2181 -19.8025
lclavicle 1.19271e-014 -8.90555e-014
lhumerus -83.3526 -34.9124 136.951
lradius 70.4469
lwrist 3.80361
lhand 13.0432 -21.1343
lfingers 7.12502
lthumb 38.0067 4.66309
rfemur -30.7774 7.868 -0.387953
rtibia -9.54166e-014
rfoot -35.0468 -40.7114
rtoes -13.2434
lfemur -9.70687 14.4055 -8.25892
ltibia 71.6261
lfoot -41.6749 21.3463
ltoes -21.3013
282
root 10.103 14.8918 3.59174 137.706 -76.8272 -149.407
lowerback 12.3936 3.28951 -6.05227
upperback 10.3926 2.82911 -8.56713
thorax 4.25215 0.899685 -6.00172
lowerneck 2.09718 -1.44869 -10.1539
upperneck 5.88864 -4.43548 28.8557
head 2.13657 -2.43075 10.9671
rclavicle -2.78299e-014 -4.77083e-014
rhumerus -68.6305 22.0191 -130.932
rradius 65.1937
rwrist 23.4333
rhand -11.9808 9.34142
rfingers 7.12502
rthumb 14.0755 -20.1619
lclavicle -2.78299e-014 -4.77083e-014
lhumerus -83.7332 -35.0406 137.138
lradius 70.6028
lwrist 4.00522
lhand 14.1464 -21.2839
lfingers 7.12502
lthumb 39.0476 4.2225
rfemur -31.2062 7.91578 -0.0494599
rtibia -6.04305e-014
rfoot -33.985 -40.1794
rtoes -15.2508
lfemur -9.0563 14.0291 -8.13264
ltibia 71.2638
lfoot -41.8975 22.7667
ltoes -20.3537
